name C:\Users\u0101727\Documents\MyRepositories\upper-imu-dc\Results\main_tracking\Case_31\FLX01_angularVelocities_bodyFrame.mot
datacolumns 4
datarows 129
range 0.51000000 1.79000000
endheader 
time	radius_imu_x	radius_imu_y	radius_imu_z	
          0.51000000	         -0.19491700	         -0.59930434	          0.05519401	
          0.52000000	         -0.22099535	         -0.58007603	          0.01495024	
          0.53000000	         -0.23929266	         -0.61691736	          0.00051733	
          0.54000000	         -0.25262535	         -0.68382235	          0.00379709	
          0.55000000	         -0.26304512	         -0.70964296	          0.01408027	
          0.56000000	         -0.27151699	         -0.67873478	          0.02572308	
          0.57000000	         -0.27934495	         -0.58998098	          0.03492443	
          0.58000000	         -0.28780328	         -0.45117534	          0.03914354	
          0.59000000	         -0.29797445	         -0.28076432	          0.03713718	
          0.60000000	         -0.31058739	         -0.10722326	          0.02883313	
          0.61000000	         -0.32590473	          0.03582423	          0.01489670	
          0.62000000	         -0.34375005	          0.11739539	         -0.00386468	
          0.63000000	         -0.36373703	          0.11699121	         -0.02699807	
          0.64000000	         -0.38554559	          0.02902327	         -0.05461094	
          0.65000000	         -0.40899308	         -0.13876811	         -0.08723862	
          0.66000000	         -0.43383036	         -0.37199024	         -0.12549593	
          0.67000000	         -0.45946395	         -0.65713606	         -0.16972875	
          0.68000000	         -0.48486819	         -0.98563391	         -0.21984952	
          0.69000000	         -0.50880376	         -1.35298215	         -0.27539766	
          0.70000000	         -0.53026826	         -1.75477815	         -0.33572635	
          0.71000000	         -0.54895686	         -2.18258454	         -0.40019859	
          0.72000000	         -0.56549291	         -2.62204582	         -0.46831114	
          0.73000000	         -0.58133075	         -3.05408027	         -0.53970934	
          0.74000000	         -0.59840262	         -3.45814801	         -0.61412089	
          0.75000000	         -0.61865386	         -3.81577370	         -0.69128764	
          0.76000000	         -0.64361364	         -4.11309384	         -0.77095231	
          0.77000000	         -0.67411140	         -4.34223255	         -0.85288543	
          0.78000000	         -0.71019832	         -4.50160297	         -0.93691976	
          0.79000000	         -0.75126656	         -4.59513228	         -1.02296907	
          0.80000000	         -0.79629974	         -4.63056695	         -1.11105342	
          0.81000000	         -0.84413628	         -4.61741342	         -1.20130449	
          0.82000000	         -0.89364473	         -4.56528835	         -1.29392844	
          0.83000000	         -0.94376640	         -4.48293715	         -1.38909866	
          0.84000000	         -0.99343630	         -4.37786342	         -1.48679844	
          0.85000000	         -1.04143573	         -4.25628999	         -1.58666925	
          0.86000000	         -1.08624260	         -4.12328151	         -1.68792237	
          0.87000000	         -1.12584510	         -3.98276307	         -1.78939883	
          0.88000000	         -1.15805437	         -3.83947854	         -1.88976349	
          0.89000000	         -1.18472686	         -3.70720319	         -1.98727825	
          0.90000000	         -1.20772221	         -3.59865288	         -2.08094174	
          0.91000000	         -1.22604446	         -3.52103956	         -2.16985454	
          0.92000000	         -1.23911878	         -3.48393107	         -2.25259751	
          0.93000000	         -1.24687342	         -3.49940109	         -2.32750491	
          0.94000000	         -1.24997770	         -3.57968658	         -2.39290990	
          0.95000000	         -1.24999630	         -3.73388498	         -2.44750318	
          0.96000000	         -1.24946536	         -3.96373448	         -2.49085304	
          0.97000000	         -1.25184223	         -4.25997710	         -2.52371060	
          0.98000000	         -1.26114078	         -4.60089887	         -2.54794842	
          0.99000000	         -1.28140331	         -4.95439191	         -2.56626544	
          1.00000000	         -1.31590698	         -5.28279019	         -2.58170647	
          1.01000000	         -1.36644046	         -5.55053968	         -2.59718154	
          1.02000000	         -1.43287205	         -5.73119126	         -2.61515562	
          1.03000000	         -1.51325950	         -5.81110988	         -2.63765478	
          1.04000000	         -1.60439178	         -5.78884333	         -2.66634795	
          1.05000000	         -1.70247096	         -5.67203011	         -2.70275582	
          1.06000000	         -1.80354368	         -5.47484425	         -2.74826706	
          1.07000000	         -1.90378095	         -5.21652050	         -2.80398168	
          1.08000000	         -1.99963970	         -4.91983121	         -2.87047147	
          1.09000000	         -2.08800458	         -4.60829066	         -2.94756273	
          1.10000000	         -2.16640268	         -4.30225885	         -3.03434624	
          1.11000000	         -2.23311446	         -4.01570036	         -3.12933037	
          1.12000000	         -2.28720240	         -3.75473868	         -3.23065223	
          1.13000000	         -2.32842657	         -3.51825601	         -3.33632736	
          1.14000000	         -2.35704174	         -3.30034787	         -3.44434297	
          1.15000000	         -2.37361307	         -3.09355471	         -3.55262750	
          1.16000000	         -2.37886035	         -2.89201973	         -3.65892519	
          1.17000000	         -2.37362925	         -2.69350091	         -3.76056133	
          1.18000000	         -2.35899885	         -2.49961863	         -3.85423102	
          1.19000000	         -2.33645378	         -2.31434895	         -3.93586673	
          1.20000000	         -2.30785193	         -2.14243256	         -4.00058399	
          1.21000000	         -2.27563623	         -1.98634186	         -4.04259986	
          1.22000000	         -2.24342790	         -1.85653768	         -4.05301041	
          1.23000000	         -2.20314897	         -1.75206502	         -4.01866670	
          1.24000000	         -2.09962042	         -1.51399936	         -4.03756936	
          1.25000000	         -2.06984146	         -1.40004242	         -3.87119980	
          1.26000000	         -2.01064450	         -1.26901158	         -3.72978743	
          1.27000000	         -1.93156249	         -1.09556357	         -3.54882212	
          1.28000000	         -1.83484331	         -0.94879643	         -3.32124610	
          1.29000000	         -1.70909295	         -0.81526040	         -3.04753952	
          1.30000000	         -1.48635474	         -0.55705938	         -2.80165657	
          1.31000000	         -1.35145022	         -0.29989891	         -2.48804893	
          1.32000000	         -1.36102737	         -0.06659866	         -2.18418698	
          1.33000000	         -1.44292606	          0.23751942	         -1.89390308	
          1.34000000	         -1.48144881	          0.53274467	         -1.62639611	
          1.35000000	         -1.52035384	          0.69567118	         -1.31291592	
          1.36000000	         -1.46745172	          0.87285189	         -1.03517874	
          1.37000000	         -1.42189648	          1.00038880	         -0.73530435	
          1.38000000	         -1.36901948	          1.10511577	         -0.44508988	
          1.39000000	         -1.36638752	          0.95577794	         -0.18491446	
          1.40000000	         -1.30131319	          0.88116267	          0.01850017	
          1.41000000	         -1.30145709	          0.71533091	          0.16090235	
          1.42000000	         -1.24939006	          0.59042291	          0.24143321	
          1.43000000	         -1.24366718	          0.47331929	          0.25446663	
          1.44000000	         -1.24133112	          0.39714507	          0.21004565	
          1.45000000	         -1.23477566	          0.36455599	          0.12048575	
          1.46000000	         -1.22429321	          0.37562917	         -0.00019287	
          1.47000000	         -1.21019541	          0.42610242	         -0.13812583	
          1.48000000	         -1.18899039	          0.48693993	         -0.28166853	
          1.49000000	         -1.18334964	          0.56609410	         -0.41846297	
          1.50000000	         -1.13031115	          0.68088738	         -0.56594889	
          1.51000000	         -1.09230264	          0.89003043	         -0.69991665	
          1.52000000	         -1.09963462	          0.98656734	         -0.83925803	
          1.53000000	         -1.06581493	          1.18327141	         -0.97098732	
          1.54000000	         -1.02858758	          1.31319948	         -1.09305308	
          1.55000000	         -0.98714515	          1.39662011	         -1.20000276	
          1.56000000	         -0.94079370	          1.41068071	         -1.28267964	
          1.57000000	         -0.89299359	          1.34973682	         -1.33112156	
          1.58000000	         -0.84933668	          1.22005899	         -1.33588858	
          1.59000000	         -0.81603364	          1.02726142	         -1.28971562	
          1.60000000	         -0.79272493	          0.87067362	         -1.18806794	
          1.61000000	         -0.80847739	          0.70345210	         -1.03159060	
          1.62000000	         -0.83617337	          0.57017186	         -0.80593368	
          1.63000000	         -0.88118210	          0.41399377	         -0.51446553	
          1.64000000	         -0.93991868	          0.24459392	         -0.16378276	
          1.65000000	         -1.00430761	          0.07793461	          0.22849100	
          1.66000000	         -1.08524355	         -0.01690160	          0.63613024	
          1.67000000	         -1.23737590	         -0.01558429	          1.00449595	
          1.68000000	         -1.36741742	          0.09213311	          1.37560611	
          1.69000000	         -1.50322099	          0.24928798	          1.71362437	
          1.70000000	         -1.63531649	          0.41090243	          2.01315308	
          1.71000000	         -1.75861660	          0.55149385	          2.27212500	
          1.72000000	         -1.87037101	          0.65423809	          2.49046465	
          1.73000000	         -1.96864792	          0.70768654	          2.66969856	
          1.74000000	         -2.05176387	          0.70518942	          2.81258313	
          1.75000000	         -2.11822907	          0.64524666	          2.92256865	
          1.76000000	         -2.16702116	          0.53183078	          3.00322668	
          1.77000000	         -2.19798409	          0.37443223	          3.05776378	
          1.78000000	         -2.21217941	          0.18766032	          3.08868172	
          1.79000000	         -2.21198608	         -0.01007871	          3.09763348	
